USFL
nRows=140
nColumns=2
inDegrees=yes
endheader
time	soleus_r	
3	 45.464028	
3.0625	 45.422306	
3.125	 45.432948	
3.1875	 45.319748	
3.25	 45.292994	
3.3125	 45.319346	
3.375	 45.475245	
3.4375	 45.530840	
3.5	 45.536387	
3.5625	 45.471434	
3.625	 45.298877	
3.6875	 45.325112	
3.75	 45.289127	
3.8125	 45.280152	
3.875	 45.248905	
3.9375	 45.227535	
4	 45.199164	
4.0625	 45.200754	
4.125	 45.041843	
4.1875	 44.942053	
4.25	 44.981551	
4.3125	 44.963960	
4.375	 44.852932	
4.4375	 44.892549	
4.5	 44.818548	
4.5625	 44.913822	
4.625	 44.962739	
4.6875	 45.006123	
4.75	 44.945917	
4.8125	 44.995278	
4.875	 45.147789	
4.9375	 45.073872	
5	 45.090316	
5.0625	 44.985246	
5.125	 44.928036	
5.1875	 44.924158	
5.25	 44.797141	
5.3125	 44.713963	
5.375	 44.697398	
5.4375	 44.504454	
5.5	 44.350412	
5.5625	 44.362092	
5.625	 44.387791	
5.6875	 44.422852	
5.75	 44.405015	
5.8125	 44.316760	
5.875	 44.332173	
5.9375	 44.357213	
6	 44.337965	
6.0625	 44.283160	
6.125	 44.317300	
6.1875	 44.382062	
6.25	 44.436441	
6.3125	 44.348962	
6.375	 44.435976	
6.4375	 44.560528	
6.5	 44.542795	
6.5625	 44.594169	
6.625	 44.689745	
6.6875	 44.763608	
6.75	 44.906365	
6.8125	 44.948727	
6.875	 44.919492	
6.9375	 44.786647	
7	 44.752750	
7.0625	 44.734487	
7.125	 44.794305	
7.1875	 44.915168	
7.25	 44.996482	
7.3125	 45.271422	
7.375	 45.338047	
7.4375	 45.423151	
7.5	 45.336013	
7.5625	 45.313277	
7.625	 45.301805	
7.6875	 45.284603	
7.75	 45.284611	
7.8125	 45.358556	
7.875	 45.260648	
7.9375	 45.196374	
8	 45.226118	
8.0625	 45.351545	
8.125	 45.345329	
8.1875	 45.351167	
8.25	 45.320974	
8.3125	 45.328316	
8.375	 45.352884	
8.4375	 45.414680	
8.5	 45.427483	
8.5625	 45.394933	
8.625	 45.477819	
8.6875	 45.460813	
8.75	 45.453161	
8.8125	 45.471069	
8.875	 45.523697	
8.9375	 45.515572	
9	 45.441461	
9.0625	 45.364307	
9.125	 45.425121	
9.1875	 45.252394	
9.25	 45.059694	
9.3125	 45.030239	
9.375	 44.899793	
9.4375	 44.982197	
9.5	 44.952638	
9.5625	 44.921651	
9.625	 44.916466	
9.6875	 44.826228	
9.75	 44.831496	
9.8125	 44.815435	
9.875	 44.811340	
9.9375	 44.736468	
10	 44.656818	
10.0625	 44.611322	
10.125	 44.612339	
10.1875	 44.540313	
10.25	 44.534811	
10.3125	 44.393960	
10.375	 44.299753	
10.4375	 44.304264	
10.5	 44.355388	
10.5625	 44.374998	
10.625	 44.380590	
10.6875	 44.455374	
10.75	 44.454419	
10.8125	 44.446450	
10.875	 44.346950	
10.9375	 44.364368	
11	 44.328441	
11.0625	 44.295434	
11.125	 44.274430	
11.1875	 44.250413	
11.25	 44.265381	
11.3125	 44.323466	
11.375	 44.347461	
11.4375	 44.365430	
11.5	 44.347260	
11.5625	 44.293173	
11.625	 44.179754	
11.6875	 44.052704	
